<svg width="17" height="21" viewBox="0 0 17 21" fill="none" xmlns="http://www.w3.org/2000/svg">
<path d="M2.42827 20.5C1.88942 20.5 1.43333 20.3158 1.06 19.9474C0.686667 19.5789 0.5 19.1289 0.5 18.5971V6.61342C0.5 6.08167 0.686667 5.63158 1.06 5.26316C1.43333 4.89474 1.88942 4.71053 2.42827 4.71053H4.5V4.44737C4.5 3.35702 4.8904 2.42649 5.6712 1.65579C6.45218 0.885263 7.39511 0.5 8.5 0.5C9.60489 0.5 10.5478 0.885263 11.3288 1.65579C12.1096 2.42649 12.5 3.35702 12.5 4.44737V4.71053H14.5717C15.1106 4.71053 15.5667 4.89474 15.94 5.26316C16.3133 5.63158 16.5 6.08167 16.5 6.61342V18.5971C16.5 19.1289 16.3133 19.5789 15.94 19.9474C15.5667 20.3158 15.1106 20.5 14.5717 20.5H2.42827ZM2.42827 18.9211H14.5717C14.6539 18.9211 14.7291 18.8873 14.7973 18.8197C14.8658 18.7524 14.9 18.6782 14.9 18.5971V6.61342C14.9 6.53237 14.8658 6.45816 14.7973 6.39079C14.7291 6.32325 14.6539 6.28947 14.5717 6.28947H12.5V8.6579C12.5 8.88193 12.4234 9.06947 12.2701 9.22053C12.1171 9.37175 11.927 9.44737 11.7 9.44737C11.473 9.44737 11.2829 9.37175 11.1299 9.22053C10.9766 9.06947 10.9 8.88193 10.9 8.6579V6.28947H6.1V8.6579C6.1 8.88193 6.02338 9.06947 5.87013 9.22053C5.71707 9.37175 5.52702 9.44737 5.3 9.44737C5.07298 9.44737 4.88293 9.37175 4.72987 9.22053C4.57662 9.06947 4.5 8.88193 4.5 8.6579V6.28947H2.42827C2.34613 6.28947 2.27093 6.32325 2.20267 6.39079C2.13422 6.45816 2.1 6.53237 2.1 6.61342V18.5971C2.1 18.6782 2.13422 18.7524 2.20267 18.8197C2.27093 18.8873 2.34613 18.9211 2.42827 18.9211ZM6.1 4.71053H10.9V4.44737C10.9 3.78754 10.6672 3.22781 10.2016 2.76816C9.736 2.30868 9.1688 2.07895 8.5 2.07895C7.8312 2.07895 7.264 2.30868 6.7984 2.76816C6.3328 3.22781 6.1 3.78754 6.1 4.44737V4.71053Z" fill="#9856EF"/>
</svg>
