<svg width="21" height="21" viewBox="0 0 21 21" fill="none" xmlns="http://www.w3.org/2000/svg">
<path d="M10.4884 16.4108C10.7889 16.4108 11.0428 16.3071 11.25 16.0997C11.4572 15.8922 11.5608 15.6381 11.5608 15.3374C11.5608 15.0368 11.457 14.783 11.2495 14.5758C11.0419 14.3688 10.7879 14.2653 10.4874 14.2653C10.1868 14.2653 9.93298 14.369 9.72579 14.5766C9.5186 14.7841 9.415 15.0382 9.415 15.3387C9.415 15.6392 9.51877 15.8931 9.72632 16.1003C9.93386 16.3073 10.1879 16.4108 10.4884 16.4108ZM10.5018 20.5C9.11868 20.5 7.8186 20.2375 6.60158 19.7126C5.38456 19.1877 4.32596 18.4754 3.42579 17.5755C2.52561 16.6757 1.81289 15.6175 1.28763 14.4011C0.762544 13.1846 0.5 11.8848 0.5 10.5018C0.5 9.11868 0.762456 7.8186 1.28737 6.60158C1.81228 5.38456 2.52465 4.32596 3.42447 3.42579C4.3243 2.52561 5.38246 1.81289 6.59895 1.28763C7.81544 0.762544 9.11518 0.5 10.4982 0.5C11.8813 0.5 13.1814 0.762456 14.3984 1.28737C15.6154 1.81228 16.674 2.52465 17.5742 3.42447C18.4744 4.3243 19.1871 5.38246 19.7124 6.59895C20.2375 7.81544 20.5 9.11518 20.5 10.4982C20.5 11.8813 20.2375 13.1814 19.7126 14.3984C19.1877 15.6154 18.4754 16.674 17.5755 17.5742C16.6757 18.4744 15.6175 19.1871 14.4011 19.7124C13.1846 20.2375 11.8848 20.5 10.5018 20.5ZM10.5 18.9211C12.8509 18.9211 14.8421 18.1053 16.4737 16.4737C18.1053 14.8421 18.9211 12.8509 18.9211 10.5C18.9211 8.14912 18.1053 6.15789 16.4737 4.52632C14.8421 2.89474 12.8509 2.07895 10.5 2.07895C8.14912 2.07895 6.15789 2.89474 4.52632 4.52632C2.89474 6.15789 2.07895 8.14912 2.07895 10.5C2.07895 12.8509 2.89474 14.8421 4.52632 16.4737C6.15789 18.1053 8.14912 18.9211 10.5 18.9211ZM10.5853 5.99395C11.0709 5.99395 11.4911 6.14684 11.8461 6.45263C12.2011 6.75842 12.3787 7.14061 12.3787 7.59921C12.3787 7.98518 12.2653 8.33061 12.0384 8.63553C11.8118 8.94061 11.5526 9.22474 11.2611 9.48789C10.8789 9.82684 10.5425 10.1997 10.2518 10.6066C9.96114 11.0132 9.8057 11.4662 9.78553 11.9655C9.77868 12.1573 9.84614 12.3179 9.9879 12.4474C10.1296 12.5768 10.2949 12.6416 10.4837 12.6416C10.6861 12.6416 10.8575 12.5741 10.9979 12.4392C11.1382 12.3043 11.228 12.139 11.2671 11.9434C11.3373 11.5817 11.4868 11.2595 11.7155 10.9768C11.9443 10.694 12.1921 10.4252 12.4589 10.1703C12.8426 9.79623 13.1775 9.38851 13.4634 8.94711C13.7496 8.50553 13.8926 8.01307 13.8926 7.46974C13.8926 6.6357 13.564 5.95044 12.9068 5.41395C12.2497 4.87763 11.4825 4.60947 10.6053 4.60947C9.97912 4.60947 9.38868 4.74807 8.83395 5.02526C8.27939 5.30263 7.84754 5.70719 7.53842 6.23895C7.44263 6.40228 7.41193 6.57412 7.44632 6.75447C7.48053 6.935 7.57307 7.07202 7.72395 7.16553C7.91605 7.27237 8.11333 7.3029 8.31579 7.25711C8.51825 7.21114 8.69026 7.09579 8.83184 6.91105C9.04518 6.63439 9.30333 6.41237 9.60632 6.245C9.9093 6.07763 10.2356 5.99395 10.5853 5.99395Z" fill="#9856EF"/>
</svg>
